<svg width="30" height="30" viewBox="0 0 30 30" fill="none" xmlns="http://www.w3.org/2000/svg">
<path d="M13.75 3.26568L11.0868 2.37793L5 6.18216V9.37497L2.5 11.25V17.5L5 19.375V23.8178L11.0868 27.622L13.75 26.7343V21.7678L11.8975 19.9154C11.691 19.9705 11.4739 20 11.25 20C9.86929 20 8.75 18.8808 8.75 17.5C8.75 16.1193 9.86929 15 11.25 15C12.6307 15 13.75 16.1193 13.75 17.5C13.75 17.724 13.7205 17.941 13.6654 18.1475L16.25 20.7323V26.7343L18.9132 27.622L25 23.8178V19.375L27.5 17.5V11.25L25 9.37497V6.18216L18.9132 2.37793L16.25 3.26568V8.23224L18.1025 10.0847C18.309 10.0295 18.526 10 18.75 10C20.1307 10 21.25 11.1193 21.25 12.5C21.25 13.8808 20.1307 15 18.75 15C17.3693 15 16.25 13.8808 16.25 12.5C16.25 12.2761 16.2795 12.059 16.3346 11.8525L13.75 9.26777V3.26568Z" fill="white"/>
</svg>
