<svg width="100" height="100" viewBox="0 0 100 100" fill="none" xmlns="http://www.w3.org/2000/svg">
<path d="M27.7141 35.833V46.5763V54.3081C27.7141 56.3445 30.4024 57.0782 31.4368 55.3241L36.3185 47.0464C36.5 46.7386 36.5958 46.3878 36.5958 46.0305V35.833C36.5958 34.7284 35.7004 33.833 34.5958 33.833H29.7141C28.6095 33.833 27.7141 34.7284 27.7141 35.833Z" fill="white"/>
<path d="M54.9226 33.8327H62.6298C63.4078 33.8327 63.891 34.677 63.4898 35.3437C59.5113 41.9551 43.7192 68.2208 41.0367 73.0279C37.9629 78.5365 32.7314 81.2472 30.6104 81.3303C28.4895 81.4134 22.6957 81.3303 14.971 81.3303C7.24625 81.3303 2.99925 75.152 3 70.1317C3.00075 65.1114 3.00075 35.9563 3 29.5849C2.99925 23.2135 9.56471 18.0003 14.5848 18.0001C19.6049 18 80.425 18 86.4105 18.0001C92.396 18.0002 98.1884 23.2134 97.9953 29.5849C97.8022 35.9564 97.9953 64.7255 97.9953 70.5179C97.9953 76.3103 91.6237 81.3303 87.9551 81.3303H70.8032C70.2509 81.3303 69.8056 80.8826 69.8056 80.3303V73.8348C69.8056 73.2825 70.2516 72.8348 70.8039 72.8348H86.7967C88.3413 72.8348 89.4998 71.2902 89.4998 69.7959V29.5849C89.4998 28.0403 87.9551 26.4956 86.4105 26.4956H14.5848C13.4263 26.4956 11.4955 28.2335 11.4955 29.5849V70.1317C11.4955 71.6766 13.6179 73.221 14.971 73.221C16.0677 73.221 25.6617 73.0941 29.2574 73.0461C30.4714 72.8677 30.9563 72.5631 31.3954 71.7324L54.0673 34.3145C54.2485 34.0154 54.5729 33.8327 54.9226 33.8327Z" fill="white"/>
<path d="M81.951 33.8327H74.4277C74.0758 33.8327 73.7498 34.0176 73.5693 34.3197L46.3817 79.8174C45.9834 80.4839 46.4636 81.3303 47.2401 81.3303H54.9484C55.3013 81.3303 55.6282 81.1442 55.8083 80.8407L82.811 35.343C83.2066 34.6764 82.7262 33.8327 81.951 33.8327Z" fill="white"/>
</svg>
